<mxfile host="app.diagrams.net" modified="2023-10-13T11:34:44.472Z" agent="Mozilla/5.0 (Windows NT 10.0; Win64; x64) AppleWebKit/537.36 (KHTML, like Gecko) Chrome/117.0.0.0 Safari/537.36 Edg/117.0.2045.47" version="22.0.4" etag="GKF0lnJmR8gaZ2PgWEmm" type="github">
  <diagram name="Page-1" id="toVpQehJR2rKCRzxGsXe">
    <mxGraphModel>
      <root>
        <mxCell id="0" />
        <mxCell id="1" parent="0" />
      </root>
    </mxGraphModel>
  </diagram>
</mxfile>
